<svg xmlns="http://www.w3.org/2000/svg" viewBox="27.33 25.67 386.71 100.17" role="img" aria-label="Ground Wind"><g fill="#171D15" fill-rule="evenodd"><path d="M27.70 125.74C27.20 125.39 27.19 124.45 27.69 124.10C28.17 123.77 29.35 123.32 31.75 122.58C32.85 122.24 34.14 121.82 34.61 121.64C35.08 121.46 35.98 121.17 36.61 121.00C37.24 120.83 38.95 120.31 40.42 119.86C43.92 118.76 46.06 118.19 47.08 118.07C47.54 118.02 49.12 117.76 50.58 117.50C52.05 117.24 54.00 116.91 54.91 116.77C57.24 116.41 57.33 116.31 57.60 113.60C57.72 112.45 57.90 110.40 58.00 109.05C58.10 107.69 58.25 106.13 58.33 105.58C58.41 105.03 58.60 103.23 58.75 101.58C59.18 96.77 59.32 95.37 59.58 93.25C59.72 92.15 59.94 90.21 60.07 88.94C60.38 85.98 60.61 85.61 63.42 83.77C64.76 82.89 66.20 81.84 69.35 79.42C71.97 77.41 74.17 76.00 74.68 76.00C75.28 76.00 79.23 78.69 83.33 81.88C83.84 82.28 84.74 82.93 85.33 83.33C87.51 84.82 88.76 85.80 88.94 86.19C89.32 86.98 89.85 90.98 90.09 94.75C90.15 95.67 90.30 97.09 90.43 97.92C90.55 98.74 90.81 101.10 91.01 103.16C91.20 105.22 91.43 107.28 91.52 107.74C91.61 108.20 91.75 109.71 91.83 111.08C92.06 114.81 92.17 115.52 92.57 115.92C92.92 116.27 93.14 116.31 98.14 117.09C99.09 117.24 100.14 117.46 100.48 117.57C100.81 117.69 101.42 117.84 101.84 117.91C102.25 117.97 103.20 118.21 103.94 118.43C104.69 118.65 105.82 118.94 106.44 119.06C108.14 119.40 111.53 120.29 112.21 120.58C112.53 120.71 113.17 120.91 113.61 121.01C114.05 121.10 114.83 121.37 115.33 121.59C115.84 121.81 116.96 122.26 117.83 122.59C119.63 123.28 120.62 123.76 121.04 124.13C121.68 124.69 121.17 125.67 120.24 125.67C119.97 125.66 118.62 125.40 117.25 125.08C115.88 124.76 114.00 124.34 113.08 124.16C111.14 123.77 110.86 123.71 106.99 122.84C105.38 122.48 103.13 122.07 101.99 121.93C99.53 121.64 97.73 121.41 95.92 121.17C92.19 120.66 90.67 120.50 89.83 120.49C89.33 120.49 87.98 120.38 86.83 120.24C85.19 120.04 82.71 119.99 75.00 119.99C69.64 119.99 64.35 120.07 63.25 120.16C59.29 120.49 57.39 120.66 56.00 120.82C55.22 120.91 53.91 121.06 53.08 121.15C52.26 121.25 50.87 121.44 50.00 121.58C49.13 121.73 47.75 121.92 46.94 122.01C46.12 122.09 45.04 122.27 44.52 122.40C44.01 122.53 42.83 122.76 41.92 122.91C41.00 123.06 39.46 123.37 38.50 123.59C33.98 124.65 31.15 125.35 30.16 125.66C28.86 126.06 28.20 126.09 27.70 125.74ZM66.42 115.58C67.70 115.45 69.15 115.34 69.64 115.34C70.12 115.34 70.66 115.26 70.83 115.17C71.41 114.86 71.53 114.02 71.68 109.28C71.84 104.14 71.93 103.71 72.89 103.31C73.22 103.17 74.08 103.08 75.20 103.08C77.61 103.08 77.71 103.18 77.86 105.55C77.92 106.48 77.97 108.72 77.98 110.52C77.99 112.32 78.05 114.03 78.11 114.32C78.27 115.15 78.80 115.38 80.81 115.52C86.50 115.91 86.42 115.91 86.83 115.51C87.26 115.07 87.26 115.04 86.56 109.00C86.33 107.03 86.08 104.70 86.00 103.83C85.92 102.96 85.74 101.31 85.61 100.17C85.47 99.02 85.27 97.00 85.17 95.67C84.64 88.72 84.60 88.53 83.52 87.66C82.08 86.50 79.29 84.57 77.49 83.50C77.11 83.27 76.41 82.84 75.94 82.54C74.82 81.82 74.38 81.85 73.15 82.71C72.60 83.10 71.82 83.64 71.43 83.92C70.75 84.40 69.23 85.50 68.00 86.41C67.68 86.65 66.94 87.19 66.35 87.62C65.72 88.08 65.21 88.60 65.08 88.90C64.97 89.19 64.83 90.13 64.78 91.00C64.73 91.87 64.61 92.96 64.52 93.42C64.43 93.88 64.24 95.71 64.09 97.50C63.94 99.29 63.71 101.65 63.57 102.75C63.44 103.85 63.25 105.76 63.16 107.00C62.93 110.37 62.70 112.33 62.42 113.52C62.09 114.91 62.10 114.95 62.58 115.42C63.06 115.91 63.23 115.91 66.42 115.58ZM41.50 90.29C41.08 89.95 40.21 88.78 39.90 88.12C39.41 87.10 39.79 86.56 41.94 85.20C42.91 84.59 44.39 83.64 45.23 83.10C46.07 82.56 47.12 81.87 47.58 81.58C48.04 81.28 49.39 80.40 50.58 79.63C51.77 78.86 53.24 77.94 53.83 77.59C54.43 77.24 55.43 76.60 56.05 76.18C56.68 75.76 57.49 75.23 57.85 75.00C58.21 74.77 59.04 74.21 59.71 73.76C60.37 73.31 61.29 72.71 61.75 72.41C62.21 72.12 63.78 71.10 65.25 70.13C66.72 69.17 68.24 68.19 68.62 67.94C69.14 67.62 69.33 67.39 69.33 67.09C69.33 66.65 69.21 66.54 67.50 65.46C66.09 64.58 64.15 63.32 61.25 61.42C55.93 57.94 54.56 57.05 53.41 56.33C52.43 55.72 46.97 52.08 41.92 48.66C40.70 47.84 40.33 47.43 40.33 46.87C40.33 46.33 41.18 45.00 41.96 44.32C42.49 43.85 42.64 43.80 43.36 43.87C44.27 43.96 45.18 44.51 48.75 47.16C51.24 49.01 52.69 49.97 55.42 51.57C57.10 52.56 57.99 53.11 60.41 54.67C61.49 55.35 62.71 56.14 63.14 56.41C63.57 56.68 65.59 58.01 67.64 59.36C70.86 61.49 71.42 61.80 71.71 61.64C72.04 61.46 72.05 61.38 71.98 44.36C71.93 30.35 71.96 27.15 72.14 26.72C72.45 25.98 73.12 25.75 75.04 25.75C76.46 25.75 76.70 25.79 77.00 26.10L77.35 26.45L77.34 43.43C77.33 52.77 77.37 60.66 77.43 60.96C77.59 61.73 78.15 61.68 79.50 60.78C80.10 60.38 81.13 59.68 81.81 59.23C82.48 58.78 83.24 58.27 83.49 58.08C84.67 57.24 86.19 56.23 87.33 55.54C88.49 54.84 94.11 51.11 95.25 50.28C95.53 50.08 96.32 49.50 97.00 49.00C97.69 48.50 98.82 47.71 99.52 47.25C101.21 46.14 101.59 45.88 102.67 45.06C104.09 43.99 105.54 43.17 106.01 43.17C106.55 43.17 107.28 43.92 108.07 45.28C109.06 46.97 108.92 47.32 106.69 48.85C106.10 49.26 105.01 50.01 104.27 50.53C103.03 51.39 102.36 51.83 99.21 53.77C98.64 54.13 97.67 54.76 97.05 55.18C96.42 55.60 94.72 56.75 93.25 57.73C91.78 58.71 89.95 59.97 89.17 60.51C88.39 61.06 87.44 61.72 87.05 61.99C86.67 62.26 86.14 62.62 85.89 62.80C85.63 62.98 84.37 63.81 83.08 64.64C79.83 66.75 79.97 66.63 80.03 67.13C80.08 67.58 80.58 67.97 82.92 69.42C83.52 69.78 85.03 70.76 86.29 71.58C87.56 72.41 89.22 73.49 90.00 73.98C90.78 74.48 92.13 75.34 93.00 75.91C93.87 76.48 95.07 77.23 95.67 77.58C96.26 77.93 97.01 78.39 97.33 78.59C98.04 79.04 100.07 80.27 100.72 80.64C101.22 80.93 104.14 82.75 105.17 83.41C105.49 83.61 106.28 84.09 106.92 84.47C108.56 85.43 109.33 86.18 109.33 86.77C109.33 87.45 108.65 88.81 107.94 89.57C107.38 90.16 107.28 90.20 106.61 90.13C105.86 90.04 104.97 89.57 102.42 87.91C98.08 85.08 96.71 84.19 96.33 84.00C96.10 83.88 95.18 83.29 94.27 82.68C92.37 81.41 91.98 81.16 89.17 79.43C88.03 78.72 86.87 78.04 86.59 77.91C86.31 77.79 85.37 77.23 84.50 76.67C83.63 76.12 82.54 75.44 82.08 75.15C81.62 74.87 81.01 74.48 80.71 74.28C80.42 74.08 79.82 73.70 79.38 73.43C78.94 73.17 78.29 72.76 77.93 72.52C77.31 72.10 77.16 72.08 74.68 72.03L72.08 71.99L70.75 72.85C70.02 73.32 68.93 74.03 68.33 74.41C64.91 76.64 64.03 77.19 61.87 78.44C60.53 79.22 59.83 79.66 55.67 82.37C54.61 83.05 53.41 83.80 53.00 84.03C50.91 85.21 46.77 87.86 45.25 88.99C43.46 90.33 42.12 90.79 41.50 90.29Z"/><path transform="translate(-20.850 -12.350) scale(1.15)" d="M146.75 91.73C145.86 91.60 143.78 90.79 143.01 90.26C141.51 89.26 140.33 87.76 139.58 85.92C139.14 84.85 139.10 84.57 139.09 82.58C139.08 80.51 139.11 80.35 139.64 79.00C140.29 77.34 141.22 76.06 142.58 74.96C143.34 74.35 143.93 74.05 145.20 73.65C146.75 73.15 146.94 73.13 148.79 73.21C151.10 73.32 152.55 73.78 153.94 74.85C155.31 75.91 155.37 76.50 154.22 77.39C153.80 77.73 153.36 78.00 153.25 78.00C153.14 78.00 152.79 77.82 152.48 77.59C150.54 76.18 149.66 75.90 147.68 76.04C146.32 76.14 145.12 76.72 144.03 77.83C142.95 78.94 142.46 80.11 142.37 81.85C142.21 84.94 143.45 87.14 146.03 88.34C147.11 88.84 147.41 88.91 148.58 88.90C149.74 88.89 150.05 88.82 150.95 88.36C152.07 87.79 152.42 87.34 152.60 86.21C152.68 85.67 152.63 85.48 152.30 85.09C151.92 84.65 151.78 84.62 150.26 84.52C148.82 84.42 148.60 84.37 148.32 84.02C147.72 83.29 148.00 82.15 148.85 81.85C149.17 81.74 150.60 81.67 152.42 81.67C155.14 81.67 155.48 81.70 155.72 81.97C155.96 82.23 156.00 82.72 156.00 85.30L156.00 88.33L155.40 89.00C153.83 90.73 149.43 92.12 146.75 91.73ZM194.08 91.73C190.02 90.70 187.58 88.43 186.68 84.84C186.24 83.05 186.25 82.00 186.72 79.89C187.16 78.00 187.74 76.95 189.11 75.65C190.32 74.50 190.96 74.07 192.25 73.57C193.29 73.17 193.65 73.12 195.50 73.10C197.43 73.08 197.67 73.12 198.83 73.57C201.53 74.63 203.45 76.61 204.35 79.25C204.69 80.23 204.75 80.73 204.74 82.42C204.74 84.15 204.68 84.58 204.30 85.61C203.40 88.06 201.35 90.12 198.66 91.26C197.79 91.62 197.27 91.72 196.00 91.76C195.13 91.79 194.27 91.77 194.08 91.73ZM219.00 91.72C218.04 91.57 216.52 90.92 215.67 90.29C214.50 89.44 214.27 89.16 213.62 87.83L213.09 86.75L212.96 82.67C212.79 77.22 212.93 73.90 213.35 73.48C213.79 73.04 215.31 73.04 215.86 73.49L216.25 73.80L216.34 79.61C216.40 83.46 216.50 85.62 216.64 86.02C217.00 87.13 217.54 87.73 218.65 88.29C220.11 89.03 221.35 89.05 222.78 88.33C223.67 87.89 223.86 87.70 224.35 86.79L224.92 85.75L224.93 80.00C224.93 76.84 225.00 74.08 225.07 73.87C225.23 73.39 225.78 73.17 226.82 73.17C227.42 73.17 227.69 73.25 227.93 73.52C228.23 73.85 228.25 74.21 228.25 80.23L228.25 86.59L227.70 87.70C227.08 88.96 225.62 90.42 224.39 90.99C222.86 91.71 220.75 92.00 219.00 91.72ZM176.23 91.55C175.80 91.51 175.41 91.35 175.20 91.12C174.75 90.63 172.60 87.15 172.10 86.07C171.59 84.99 170.80 84.59 169.42 84.70C168.03 84.82 168.00 84.90 168.02 88.13C168.04 90.56 168.01 90.88 167.73 91.19C167.47 91.48 167.27 91.52 166.53 91.46C165.49 91.37 165.05 91.01 164.83 90.07C164.74 89.71 164.67 85.94 164.67 81.70L164.67 73.98L165.09 73.56L165.51 73.14L169.79 73.26C174.59 73.40 175.27 73.54 176.71 74.74C177.62 75.50 177.89 75.96 178.23 77.31C178.94 80.10 178.06 82.51 175.80 83.94C175.34 84.23 175.17 84.45 175.17 84.76C175.17 85.13 176.67 87.79 177.94 89.66C178.37 90.30 178.45 91.03 178.12 91.29C177.84 91.52 177.06 91.62 176.23 91.55ZM327.22 91.43C326.14 90.95 326.18 91.25 326.16 82.16L326.14 73.92L326.58 73.54C326.92 73.25 327.22 73.17 327.92 73.17C328.99 73.17 329.63 73.62 329.68 74.42C329.69 74.69 329.69 78.46 329.68 82.78L329.67 90.65L329.29 91.08C328.83 91.61 327.95 91.76 327.22 91.43ZM237.99 91.12C237.68 90.92 237.38 90.56 237.32 90.33C237.25 90.10 237.19 86.33 237.18 81.95L237.17 73.98L237.59 73.56C237.98 73.17 238.12 73.14 239.09 73.20C240.53 73.29 240.68 73.44 243.83 77.78C246.33 81.23 247.59 83.02 247.97 83.66C248.36 84.34 248.91 84.65 249.20 84.37C249.30 84.27 249.37 82.19 249.39 79.02C249.42 73.08 249.36 73.33 250.90 73.20C251.71 73.14 251.86 73.17 252.24 73.56C252.65 73.97 252.67 74.06 252.67 75.95C252.69 85.83 252.64 90.03 252.49 90.46C252.27 91.08 251.67 91.41 250.83 91.38C249.70 91.33 249.57 91.22 247.54 88.50C247.37 88.27 246.67 87.26 245.99 86.25C245.32 85.24 244.56 84.15 244.32 83.83C244.08 83.51 243.34 82.52 242.68 81.62C241.76 80.38 241.39 80.00 241.09 80.00C240.88 80.00 240.66 80.12 240.60 80.26C240.55 80.41 240.50 82.85 240.50 85.68C240.50 90.61 240.49 90.85 240.17 91.17C239.71 91.63 238.71 91.61 237.99 91.12ZM262.20 91.39C262.09 91.34 261.88 91.09 261.75 90.83C261.54 90.43 261.50 89.03 261.48 82.15L261.45 73.94L261.89 73.56C262.33 73.19 262.36 73.19 266.21 73.27C269.33 73.34 270.33 73.42 271.33 73.69C272.64 74.03 274.13 74.93 275.03 75.91C275.75 76.69 276.94 78.96 277.26 80.17C277.63 81.59 277.61 83.76 277.20 85.19C276.41 87.98 273.70 90.47 270.68 91.19C269.67 91.43 268.73 91.49 265.92 91.48C263.99 91.48 262.32 91.44 262.20 91.39ZM301.21 91.28C300.22 90.92 300.21 90.89 299.25 87.08C299.09 86.44 298.62 84.79 298.22 83.42C297.81 82.04 297.33 80.35 297.15 79.67C296.97 78.98 296.60 77.59 296.33 76.58C295.77 74.52 295.73 74.04 296.07 73.57C296.40 73.13 298.14 73.11 298.63 73.55C299.04 73.92 299.77 76.05 300.00 77.58C300.10 78.22 300.40 79.53 300.67 80.48C300.94 81.43 301.17 82.29 301.17 82.38C301.17 82.47 301.32 83.06 301.51 83.69C302.06 85.56 302.86 85.57 303.10 83.71C303.16 83.18 303.38 82.26 303.59 81.67C303.79 81.07 304.24 79.61 304.58 78.42C305.94 73.68 306.04 73.44 306.75 73.27C307.27 73.13 308.39 73.41 308.66 73.74C308.77 73.87 309.03 74.68 309.25 75.53C309.46 76.38 309.79 77.65 309.97 78.33C310.15 79.02 310.54 80.48 310.83 81.58C311.47 84.03 311.63 84.47 311.99 84.66C312.47 84.92 312.70 84.58 313.01 83.23C313.57 80.77 314.32 77.91 314.56 77.33C314.69 77.01 314.88 76.23 314.99 75.60C315.10 74.96 315.29 74.24 315.42 73.99C316.01 72.84 318.83 72.90 318.83 74.06C318.83 74.27 318.69 74.93 318.52 75.51C318.34 76.10 318.05 77.18 317.87 77.92C317.68 78.65 317.30 80.00 317.01 80.92C316.48 82.60 315.81 85.01 315.10 87.75C314.34 90.68 313.83 91.33 312.28 91.33C310.94 91.33 310.64 90.89 309.93 87.83C309.45 85.74 308.81 83.48 308.45 82.64C308.31 82.31 308.11 81.61 308.00 81.10C307.79 80.08 307.66 79.93 307.17 80.08C306.93 80.16 306.74 80.53 306.48 81.39C306.29 82.04 305.81 83.60 305.42 84.83C305.03 86.07 304.58 87.65 304.42 88.33C303.93 90.41 303.68 90.98 303.16 91.25C302.60 91.54 301.96 91.55 301.21 91.28ZM339.00 91.29C338.18 90.87 338.17 90.80 338.17 82.30C338.17 76.74 338.22 74.22 338.35 73.94C338.46 73.71 338.76 73.43 339.02 73.32C339.66 73.06 340.93 73.21 341.48 73.62C341.95 73.97 344.11 76.76 345.43 78.72C345.87 79.38 346.97 80.91 347.88 82.12C349.46 84.25 349.94 84.66 350.26 84.16C350.32 84.06 350.36 81.73 350.34 78.99L350.32 74.00L350.74 73.58C351.16 73.16 352.06 73.03 352.97 73.27C353.76 73.49 353.79 73.77 353.73 81.00C353.67 89.31 353.60 90.45 353.13 90.96C352.65 91.47 351.88 91.58 351.06 91.25C350.38 90.98 350.27 90.87 349.08 89.17C348.73 88.66 348.23 87.95 347.97 87.58C347.71 87.22 347.15 86.39 346.71 85.75C346.28 85.11 345.18 83.59 344.27 82.38C341.52 78.74 341.46 78.82 341.53 85.64L341.58 90.69L341.12 91.10C340.59 91.55 339.68 91.63 339.00 91.29ZM362.84 91.03L362.33 90.53L362.29 86.22C362.27 83.85 362.27 80.12 362.30 77.92C362.35 74.21 362.38 73.89 362.68 73.58C362.99 73.27 363.19 73.25 366.74 73.31C371.37 73.38 372.62 73.60 374.24 74.66C375.45 75.45 376.52 76.72 377.30 78.29C377.98 79.64 378.19 80.65 378.19 82.54C378.19 85.19 377.55 86.87 375.89 88.59C375.34 89.16 374.42 89.87 373.79 90.21C372.06 91.16 370.92 91.36 366.88 91.46L363.35 91.54L362.84 91.03ZM197.92 88.36C199.00 87.85 200.10 86.77 200.63 85.72C201.91 83.21 201.57 79.84 199.85 77.97C198.84 76.86 197.60 76.24 196.17 76.09C193.84 75.87 192.19 76.61 190.93 78.46C190.00 79.84 189.76 80.84 189.87 83.02C189.93 84.32 190.03 84.81 190.38 85.53C191.76 88.33 195.23 89.63 197.92 88.36ZM270.58 88.16C271.70 87.73 273.07 86.49 273.55 85.47C274.26 83.95 274.34 80.89 273.69 79.44C273.23 78.38 272.25 77.38 271.09 76.78C270.12 76.28 270.00 76.26 267.64 76.20L265.19 76.14L264.92 76.56C264.67 76.93 264.64 77.57 264.67 82.12C264.69 84.94 264.78 87.48 264.86 87.77C265.09 88.55 265.50 88.68 267.67 88.60C269.14 88.55 269.81 88.45 270.58 88.16ZM371.29 88.27C372.37 87.92 373.57 86.90 374.33 85.68L374.92 84.75L374.92 82.42C374.92 80.12 374.91 80.07 374.39 79.08C373.72 77.82 373.19 77.31 371.83 76.68C370.97 76.28 370.43 76.15 369.15 76.07C368.27 76.00 367.20 76.01 366.77 76.07C365.51 76.26 365.50 76.29 365.50 82.37C365.50 88.99 365.34 88.67 368.58 88.59C369.73 88.56 370.74 88.44 371.29 88.27ZM173.87 81.24C174.84 80.56 175.02 80.14 174.96 78.80C174.91 77.82 174.84 77.61 174.41 77.15C173.62 76.31 173.08 76.17 170.79 76.17C168.01 76.17 168.10 76.09 168.03 78.67C167.97 80.79 168.13 81.58 168.64 81.73C168.79 81.78 169.87 81.80 171.04 81.78C173.09 81.74 173.18 81.72 173.87 81.24Z"/></g></svg>
